<svg width="900" height="308" viewBox="0 0 900 308" fill="none" xmlns="http://www.w3.org/2000/svg">
  <defs>
    <linearGradient id="q" gradientUnits="userSpaceOnUse" x1="0" y1="0" x2="900" y2="0" spreadMethod="reflect">
      <stop offset="0" stop-color="#c7f284"/><stop offset="0.25" stop-color="#67e8f9"/>
      <stop offset="0.5" stop-color="#c4b5fd"/><stop offset="0.75" stop-color="#f9a8d4"/>
      <stop offset="1" stop-color="#fbbf24"/>
      <animateTransform attributeName="gradientTransform" type="translate" from="0 0" to="1800 0" dur="9s" repeatCount="indefinite"/>
    </linearGradient>
    <pattern id="qd" width="26" height="26" patternUnits="userSpaceOnUse">
      <circle cx="1" cy="1" r="1" fill="#ffffff" opacity="0.06"/>
    </pattern>
    <clipPath id="qp"><rect width="900" height="308" rx="16"/></clipPath>
  </defs>
  <g clip-path="url(#qp)" font-family="'Courier New', monospace">
    <rect width="900" height="308" fill="#09090b"/>
    <rect width="900" height="308" fill="url(#qd)"/>
    <ellipse cx="140" cy="308" rx="320" ry="120" fill="#c7f284" opacity="0.04"/>
    <ellipse cx="780" cy="0" rx="300" ry="110" fill="#c4b5fd" opacity="0.05"/>
    <text x="40" y="34" font-size="13" font-weight="bold" letter-spacing="3" fill="#fafafa">SEASON PASS</text>
    <text x="176" y="34" font-size="13" font-weight="bold" letter-spacing="3" fill="url(#q)">2026</text>
    <text x="860" y="34" text-anchor="end" font-size="10" letter-spacing="1" fill="#71717a">xp bars advance as runs converge</text>
  <g>
    <text x="40" y="69" font-size="13" fill="#d4d4d8">world-model RL — DreamerV3 on Crafter</text>
    <rect x="425" y="58" width="14" height="12" rx="2.5" fill="#18181b" stroke="#ffffff" stroke-opacity="0.07"/><rect x="442" y="58" width="14" height="12" rx="2.5" fill="#18181b" stroke="#ffffff" stroke-opacity="0.07"/><rect x="459" y="58" width="14" height="12" rx="2.5" fill="#18181b" stroke="#ffffff" stroke-opacity="0.07"/><rect x="476" y="58" width="14" height="12" rx="2.5" fill="#18181b" stroke="#ffffff" stroke-opacity="0.07"/><rect x="493" y="58" width="14" height="12" rx="2.5" fill="#18181b" stroke="#ffffff" stroke-opacity="0.07"/><rect x="510" y="58" width="14" height="12" rx="2.5" fill="#18181b" stroke="#ffffff" stroke-opacity="0.07"/><rect x="527" y="58" width="14" height="12" rx="2.5" fill="#18181b" stroke="#ffffff" stroke-opacity="0.07"/><rect x="544" y="58" width="14" height="12" rx="2.5" fill="#18181b" stroke="#ffffff" stroke-opacity="0.07"/><rect x="561" y="58" width="14" height="12" rx="2.5" fill="#18181b" stroke="#ffffff" stroke-opacity="0.07"/><rect x="578" y="58" width="14" height="12" rx="2.5" fill="#18181b" stroke="#ffffff" stroke-opacity="0.07"/><rect x="595" y="58" width="14" height="12" rx="2.5" fill="#18181b" stroke="#ffffff" stroke-opacity="0.07"/><rect x="612" y="58" width="14" height="12" rx="2.5" fill="#18181b" stroke="#ffffff" stroke-opacity="0.07"/><rect x="629" y="58" width="14" height="12" rx="2.5" fill="#18181b" stroke="#ffffff" stroke-opacity="0.07"/><rect x="646" y="58" width="14" height="12" rx="2.5" fill="#18181b" stroke="#ffffff" stroke-opacity="0.07"/><rect x="663" y="58" width="14" height="12" rx="2.5" fill="#18181b" stroke="#ffffff" stroke-opacity="0.07"/><rect x="680" y="58" width="14" height="12" rx="2.5" fill="#18181b" stroke="#ffffff" stroke-opacity="0.07"/><rect x="697" y="58" width="14" height="12" rx="2.5" fill="#18181b" stroke="#ffffff" stroke-opacity="0.07"/><rect x="714" y="58" width="14" height="12" rx="2.5" fill="#18181b" stroke="#ffffff" stroke-opacity="0.07"/><rect x="731" y="58" width="14" height="12" rx="2.5" fill="#18181b" stroke="#ffffff" stroke-opacity="0.07"/><rect x="748" y="58" width="14" height="12" rx="2.5" fill="#18181b" stroke="#ffffff" stroke-opacity="0.07"/><rect x="765" y="58" width="14" height="12" rx="2.5" fill="#18181b" stroke="#ffffff" stroke-opacity="0.07"/><rect x="782" y="58" width="14" height="12" rx="2.5" fill="#18181b" stroke="#ffffff" stroke-opacity="0.07"/><rect x="799" y="58" width="14" height="12" rx="2.5" fill="#18181b" stroke="#ffffff" stroke-opacity="0.07"/><rect x="816" y="58" width="14" height="12" rx="2.5" fill="#18181b" stroke="#ffffff" stroke-opacity="0.07"/><rect x="425" y="58" width="14" height="12" rx="2.5" fill="#c7f284" opacity="0"><animate attributeName="opacity" from="0" to="0.92" dur="0.15s" begin="0.25s" fill="freeze"/></rect><rect x="442" y="58" width="14" height="12" rx="2.5" fill="#c7f284" opacity="0"><animate attributeName="opacity" from="0" to="0.92" dur="0.15s" begin="0.31s" fill="freeze"/></rect><rect x="459" y="58" width="14" height="12" rx="2.5" fill="#c7f284" opacity="0"><animate attributeName="opacity" from="0" to="0.92" dur="0.15s" begin="0.37s" fill="freeze"/></rect><rect x="476" y="58" width="14" height="12" rx="2.5" fill="#c7f284" opacity="0"><animate attributeName="opacity" from="0" to="0.92" dur="0.15s" begin="0.43s" fill="freeze"/></rect><rect x="493" y="58" width="14" height="12" rx="2.5" fill="#c7f284" opacity="0"><animate attributeName="opacity" from="0" to="0.92" dur="0.15s" begin="0.49s" fill="freeze"/></rect><rect x="510" y="58" width="14" height="12" rx="2.5" fill="#c7f284" opacity="0"><animate attributeName="opacity" from="0" to="0.92" dur="0.15s" begin="0.55s" fill="freeze"/></rect><rect x="527" y="58" width="14" height="12" rx="2.5" fill="#c7f284" opacity="0"><animate attributeName="opacity" from="0" to="0.92" dur="0.15s" begin="0.61s" fill="freeze"/></rect><rect x="544" y="58" width="14" height="12" rx="2.5" fill="#c7f284" opacity="0"><animate attributeName="opacity" from="0" to="0.92" dur="0.15s" begin="0.67s" fill="freeze"/></rect><rect x="561" y="58" width="14" height="12" rx="2.5" fill="#c7f284" opacity="0"><animate attributeName="opacity" from="0" to="0.92" dur="0.15s" begin="0.73s" fill="freeze"/></rect><rect x="578" y="58" width="14" height="12" rx="2.5" fill="#c7f284" opacity="0"><animate attributeName="opacity" from="0" to="0.92" dur="0.15s" begin="0.79s" fill="freeze"/></rect>
    <text x="844" y="69" font-size="12" fill="#c7f284" opacity="0">42%<animate attributeName="opacity" from="0" to="1" dur="0.3s" begin="0.85s" fill="freeze"/></text>
  </g>
  <g>
    <text x="40" y="113" font-size="13" fill="#d4d4d8">reasoning — GRPO / RLVR post-training</text>
    <rect x="425" y="102" width="14" height="12" rx="2.5" fill="#18181b" stroke="#ffffff" stroke-opacity="0.07"/><rect x="442" y="102" width="14" height="12" rx="2.5" fill="#18181b" stroke="#ffffff" stroke-opacity="0.07"/><rect x="459" y="102" width="14" height="12" rx="2.5" fill="#18181b" stroke="#ffffff" stroke-opacity="0.07"/><rect x="476" y="102" width="14" height="12" rx="2.5" fill="#18181b" stroke="#ffffff" stroke-opacity="0.07"/><rect x="493" y="102" width="14" height="12" rx="2.5" fill="#18181b" stroke="#ffffff" stroke-opacity="0.07"/><rect x="510" y="102" width="14" height="12" rx="2.5" fill="#18181b" stroke="#ffffff" stroke-opacity="0.07"/><rect x="527" y="102" width="14" height="12" rx="2.5" fill="#18181b" stroke="#ffffff" stroke-opacity="0.07"/><rect x="544" y="102" width="14" height="12" rx="2.5" fill="#18181b" stroke="#ffffff" stroke-opacity="0.07"/><rect x="561" y="102" width="14" height="12" rx="2.5" fill="#18181b" stroke="#ffffff" stroke-opacity="0.07"/><rect x="578" y="102" width="14" height="12" rx="2.5" fill="#18181b" stroke="#ffffff" stroke-opacity="0.07"/><rect x="595" y="102" width="14" height="12" rx="2.5" fill="#18181b" stroke="#ffffff" stroke-opacity="0.07"/><rect x="612" y="102" width="14" height="12" rx="2.5" fill="#18181b" stroke="#ffffff" stroke-opacity="0.07"/><rect x="629" y="102" width="14" height="12" rx="2.5" fill="#18181b" stroke="#ffffff" stroke-opacity="0.07"/><rect x="646" y="102" width="14" height="12" rx="2.5" fill="#18181b" stroke="#ffffff" stroke-opacity="0.07"/><rect x="663" y="102" width="14" height="12" rx="2.5" fill="#18181b" stroke="#ffffff" stroke-opacity="0.07"/><rect x="680" y="102" width="14" height="12" rx="2.5" fill="#18181b" stroke="#ffffff" stroke-opacity="0.07"/><rect x="697" y="102" width="14" height="12" rx="2.5" fill="#18181b" stroke="#ffffff" stroke-opacity="0.07"/><rect x="714" y="102" width="14" height="12" rx="2.5" fill="#18181b" stroke="#ffffff" stroke-opacity="0.07"/><rect x="731" y="102" width="14" height="12" rx="2.5" fill="#18181b" stroke="#ffffff" stroke-opacity="0.07"/><rect x="748" y="102" width="14" height="12" rx="2.5" fill="#18181b" stroke="#ffffff" stroke-opacity="0.07"/><rect x="765" y="102" width="14" height="12" rx="2.5" fill="#18181b" stroke="#ffffff" stroke-opacity="0.07"/><rect x="782" y="102" width="14" height="12" rx="2.5" fill="#18181b" stroke="#ffffff" stroke-opacity="0.07"/><rect x="799" y="102" width="14" height="12" rx="2.5" fill="#18181b" stroke="#ffffff" stroke-opacity="0.07"/><rect x="816" y="102" width="14" height="12" rx="2.5" fill="#18181b" stroke="#ffffff" stroke-opacity="0.07"/><rect x="425" y="102" width="14" height="12" rx="2.5" fill="#67e8f9" opacity="0"><animate attributeName="opacity" from="0" to="0.92" dur="0.15s" begin="0.60s" fill="freeze"/></rect><rect x="442" y="102" width="14" height="12" rx="2.5" fill="#67e8f9" opacity="0"><animate attributeName="opacity" from="0" to="0.92" dur="0.15s" begin="0.66s" fill="freeze"/></rect><rect x="459" y="102" width="14" height="12" rx="2.5" fill="#67e8f9" opacity="0"><animate attributeName="opacity" from="0" to="0.92" dur="0.15s" begin="0.72s" fill="freeze"/></rect><rect x="476" y="102" width="14" height="12" rx="2.5" fill="#67e8f9" opacity="0"><animate attributeName="opacity" from="0" to="0.92" dur="0.15s" begin="0.78s" fill="freeze"/></rect><rect x="493" y="102" width="14" height="12" rx="2.5" fill="#67e8f9" opacity="0"><animate attributeName="opacity" from="0" to="0.92" dur="0.15s" begin="0.84s" fill="freeze"/></rect><rect x="510" y="102" width="14" height="12" rx="2.5" fill="#67e8f9" opacity="0"><animate attributeName="opacity" from="0" to="0.92" dur="0.15s" begin="0.90s" fill="freeze"/></rect><rect x="527" y="102" width="14" height="12" rx="2.5" fill="#67e8f9" opacity="0"><animate attributeName="opacity" from="0" to="0.92" dur="0.15s" begin="0.96s" fill="freeze"/></rect><rect x="544" y="102" width="14" height="12" rx="2.5" fill="#67e8f9" opacity="0"><animate attributeName="opacity" from="0" to="0.92" dur="0.15s" begin="1.02s" fill="freeze"/></rect>
    <text x="844" y="113" font-size="12" fill="#67e8f9" opacity="0">33%<animate attributeName="opacity" from="0" to="1" dur="0.3s" begin="1.08s" fill="freeze"/></text>
  </g>
  <g>
    <text x="40" y="157" font-size="13" fill="#d4d4d8">efficient-inference lab — quant x spec-decode</text>
    <rect x="425" y="146" width="14" height="12" rx="2.5" fill="#18181b" stroke="#ffffff" stroke-opacity="0.07"/><rect x="442" y="146" width="14" height="12" rx="2.5" fill="#18181b" stroke="#ffffff" stroke-opacity="0.07"/><rect x="459" y="146" width="14" height="12" rx="2.5" fill="#18181b" stroke="#ffffff" stroke-opacity="0.07"/><rect x="476" y="146" width="14" height="12" rx="2.5" fill="#18181b" stroke="#ffffff" stroke-opacity="0.07"/><rect x="493" y="146" width="14" height="12" rx="2.5" fill="#18181b" stroke="#ffffff" stroke-opacity="0.07"/><rect x="510" y="146" width="14" height="12" rx="2.5" fill="#18181b" stroke="#ffffff" stroke-opacity="0.07"/><rect x="527" y="146" width="14" height="12" rx="2.5" fill="#18181b" stroke="#ffffff" stroke-opacity="0.07"/><rect x="544" y="146" width="14" height="12" rx="2.5" fill="#18181b" stroke="#ffffff" stroke-opacity="0.07"/><rect x="561" y="146" width="14" height="12" rx="2.5" fill="#18181b" stroke="#ffffff" stroke-opacity="0.07"/><rect x="578" y="146" width="14" height="12" rx="2.5" fill="#18181b" stroke="#ffffff" stroke-opacity="0.07"/><rect x="595" y="146" width="14" height="12" rx="2.5" fill="#18181b" stroke="#ffffff" stroke-opacity="0.07"/><rect x="612" y="146" width="14" height="12" rx="2.5" fill="#18181b" stroke="#ffffff" stroke-opacity="0.07"/><rect x="629" y="146" width="14" height="12" rx="2.5" fill="#18181b" stroke="#ffffff" stroke-opacity="0.07"/><rect x="646" y="146" width="14" height="12" rx="2.5" fill="#18181b" stroke="#ffffff" stroke-opacity="0.07"/><rect x="663" y="146" width="14" height="12" rx="2.5" fill="#18181b" stroke="#ffffff" stroke-opacity="0.07"/><rect x="680" y="146" width="14" height="12" rx="2.5" fill="#18181b" stroke="#ffffff" stroke-opacity="0.07"/><rect x="697" y="146" width="14" height="12" rx="2.5" fill="#18181b" stroke="#ffffff" stroke-opacity="0.07"/><rect x="714" y="146" width="14" height="12" rx="2.5" fill="#18181b" stroke="#ffffff" stroke-opacity="0.07"/><rect x="731" y="146" width="14" height="12" rx="2.5" fill="#18181b" stroke="#ffffff" stroke-opacity="0.07"/><rect x="748" y="146" width="14" height="12" rx="2.5" fill="#18181b" stroke="#ffffff" stroke-opacity="0.07"/><rect x="765" y="146" width="14" height="12" rx="2.5" fill="#18181b" stroke="#ffffff" stroke-opacity="0.07"/><rect x="782" y="146" width="14" height="12" rx="2.5" fill="#18181b" stroke="#ffffff" stroke-opacity="0.07"/><rect x="799" y="146" width="14" height="12" rx="2.5" fill="#18181b" stroke="#ffffff" stroke-opacity="0.07"/><rect x="816" y="146" width="14" height="12" rx="2.5" fill="#18181b" stroke="#ffffff" stroke-opacity="0.07"/><rect x="425" y="146" width="14" height="12" rx="2.5" fill="#c4b5fd" opacity="0"><animate attributeName="opacity" from="0" to="0.92" dur="0.15s" begin="0.95s" fill="freeze"/></rect><rect x="442" y="146" width="14" height="12" rx="2.5" fill="#c4b5fd" opacity="0"><animate attributeName="opacity" from="0" to="0.92" dur="0.15s" begin="1.01s" fill="freeze"/></rect><rect x="459" y="146" width="14" height="12" rx="2.5" fill="#c4b5fd" opacity="0"><animate attributeName="opacity" from="0" to="0.92" dur="0.15s" begin="1.07s" fill="freeze"/></rect><rect x="476" y="146" width="14" height="12" rx="2.5" fill="#c4b5fd" opacity="0"><animate attributeName="opacity" from="0" to="0.92" dur="0.15s" begin="1.13s" fill="freeze"/></rect>
    <text x="844" y="157" font-size="12" fill="#c4b5fd" opacity="0">17%<animate attributeName="opacity" from="0" to="1" dur="0.3s" begin="1.19s" fill="freeze"/></text>
  </g>
  <g>
    <text x="40" y="201" font-size="13" fill="#d4d4d8">diffusion LM vs a matched AR twin</text>
    <rect x="425" y="190" width="14" height="12" rx="2.5" fill="#18181b" stroke="#ffffff" stroke-opacity="0.07"/><rect x="442" y="190" width="14" height="12" rx="2.5" fill="#18181b" stroke="#ffffff" stroke-opacity="0.07"/><rect x="459" y="190" width="14" height="12" rx="2.5" fill="#18181b" stroke="#ffffff" stroke-opacity="0.07"/><rect x="476" y="190" width="14" height="12" rx="2.5" fill="#18181b" stroke="#ffffff" stroke-opacity="0.07"/><rect x="493" y="190" width="14" height="12" rx="2.5" fill="#18181b" stroke="#ffffff" stroke-opacity="0.07"/><rect x="510" y="190" width="14" height="12" rx="2.5" fill="#18181b" stroke="#ffffff" stroke-opacity="0.07"/><rect x="527" y="190" width="14" height="12" rx="2.5" fill="#18181b" stroke="#ffffff" stroke-opacity="0.07"/><rect x="544" y="190" width="14" height="12" rx="2.5" fill="#18181b" stroke="#ffffff" stroke-opacity="0.07"/><rect x="561" y="190" width="14" height="12" rx="2.5" fill="#18181b" stroke="#ffffff" stroke-opacity="0.07"/><rect x="578" y="190" width="14" height="12" rx="2.5" fill="#18181b" stroke="#ffffff" stroke-opacity="0.07"/><rect x="595" y="190" width="14" height="12" rx="2.5" fill="#18181b" stroke="#ffffff" stroke-opacity="0.07"/><rect x="612" y="190" width="14" height="12" rx="2.5" fill="#18181b" stroke="#ffffff" stroke-opacity="0.07"/><rect x="629" y="190" width="14" height="12" rx="2.5" fill="#18181b" stroke="#ffffff" stroke-opacity="0.07"/><rect x="646" y="190" width="14" height="12" rx="2.5" fill="#18181b" stroke="#ffffff" stroke-opacity="0.07"/><rect x="663" y="190" width="14" height="12" rx="2.5" fill="#18181b" stroke="#ffffff" stroke-opacity="0.07"/><rect x="680" y="190" width="14" height="12" rx="2.5" fill="#18181b" stroke="#ffffff" stroke-opacity="0.07"/><rect x="697" y="190" width="14" height="12" rx="2.5" fill="#18181b" stroke="#ffffff" stroke-opacity="0.07"/><rect x="714" y="190" width="14" height="12" rx="2.5" fill="#18181b" stroke="#ffffff" stroke-opacity="0.07"/><rect x="731" y="190" width="14" height="12" rx="2.5" fill="#18181b" stroke="#ffffff" stroke-opacity="0.07"/><rect x="748" y="190" width="14" height="12" rx="2.5" fill="#18181b" stroke="#ffffff" stroke-opacity="0.07"/><rect x="765" y="190" width="14" height="12" rx="2.5" fill="#18181b" stroke="#ffffff" stroke-opacity="0.07"/><rect x="782" y="190" width="14" height="12" rx="2.5" fill="#18181b" stroke="#ffffff" stroke-opacity="0.07"/><rect x="799" y="190" width="14" height="12" rx="2.5" fill="#18181b" stroke="#ffffff" stroke-opacity="0.07"/><rect x="816" y="190" width="14" height="12" rx="2.5" fill="#18181b" stroke="#ffffff" stroke-opacity="0.07"/><rect x="425" y="190" width="14" height="12" rx="2.5" fill="#f9a8d4" opacity="0"><animate attributeName="opacity" from="0" to="0.92" dur="0.15s" begin="1.30s" fill="freeze"/></rect><rect x="442" y="190" width="14" height="12" rx="2.5" fill="#f9a8d4" opacity="0"><animate attributeName="opacity" from="0" to="0.92" dur="0.15s" begin="1.36s" fill="freeze"/></rect>
    <text x="844" y="201" font-size="12" fill="#f9a8d4" opacity="0">8%<animate attributeName="opacity" from="0" to="1" dur="0.3s" begin="1.42s" fill="freeze"/></text>
  </g>
  <g>
    <text x="40" y="245" font-size="13" fill="#d4d4d8">robotics VLA (LIBERO) + n8n capstone</text>
    <rect x="425" y="234" width="14" height="12" rx="2.5" fill="#18181b" stroke="#ffffff" stroke-opacity="0.07"/><rect x="442" y="234" width="14" height="12" rx="2.5" fill="#18181b" stroke="#ffffff" stroke-opacity="0.07"/><rect x="459" y="234" width="14" height="12" rx="2.5" fill="#18181b" stroke="#ffffff" stroke-opacity="0.07"/><rect x="476" y="234" width="14" height="12" rx="2.5" fill="#18181b" stroke="#ffffff" stroke-opacity="0.07"/><rect x="493" y="234" width="14" height="12" rx="2.5" fill="#18181b" stroke="#ffffff" stroke-opacity="0.07"/><rect x="510" y="234" width="14" height="12" rx="2.5" fill="#18181b" stroke="#ffffff" stroke-opacity="0.07"/><rect x="527" y="234" width="14" height="12" rx="2.5" fill="#18181b" stroke="#ffffff" stroke-opacity="0.07"/><rect x="544" y="234" width="14" height="12" rx="2.5" fill="#18181b" stroke="#ffffff" stroke-opacity="0.07"/><rect x="561" y="234" width="14" height="12" rx="2.5" fill="#18181b" stroke="#ffffff" stroke-opacity="0.07"/><rect x="578" y="234" width="14" height="12" rx="2.5" fill="#18181b" stroke="#ffffff" stroke-opacity="0.07"/><rect x="595" y="234" width="14" height="12" rx="2.5" fill="#18181b" stroke="#ffffff" stroke-opacity="0.07"/><rect x="612" y="234" width="14" height="12" rx="2.5" fill="#18181b" stroke="#ffffff" stroke-opacity="0.07"/><rect x="629" y="234" width="14" height="12" rx="2.5" fill="#18181b" stroke="#ffffff" stroke-opacity="0.07"/><rect x="646" y="234" width="14" height="12" rx="2.5" fill="#18181b" stroke="#ffffff" stroke-opacity="0.07"/><rect x="663" y="234" width="14" height="12" rx="2.5" fill="#18181b" stroke="#ffffff" stroke-opacity="0.07"/><rect x="680" y="234" width="14" height="12" rx="2.5" fill="#18181b" stroke="#ffffff" stroke-opacity="0.07"/><rect x="697" y="234" width="14" height="12" rx="2.5" fill="#18181b" stroke="#ffffff" stroke-opacity="0.07"/><rect x="714" y="234" width="14" height="12" rx="2.5" fill="#18181b" stroke="#ffffff" stroke-opacity="0.07"/><rect x="731" y="234" width="14" height="12" rx="2.5" fill="#18181b" stroke="#ffffff" stroke-opacity="0.07"/><rect x="748" y="234" width="14" height="12" rx="2.5" fill="#18181b" stroke="#ffffff" stroke-opacity="0.07"/><rect x="765" y="234" width="14" height="12" rx="2.5" fill="#18181b" stroke="#ffffff" stroke-opacity="0.07"/><rect x="782" y="234" width="14" height="12" rx="2.5" fill="#18181b" stroke="#ffffff" stroke-opacity="0.07"/><rect x="799" y="234" width="14" height="12" rx="2.5" fill="#18181b" stroke="#ffffff" stroke-opacity="0.07"/><rect x="816" y="234" width="14" height="12" rx="2.5" fill="#18181b" stroke="#ffffff" stroke-opacity="0.07"/>
    <text x="844" y="245" font-size="12" fill="#71717a" opacity="0">queued<animate attributeName="opacity" from="0" to="1" dur="0.3s" begin="1.65s" fill="freeze"/></text>
  </g>
    <rect x="40" y="290" width="820" height="1" fill="url(#q)" opacity="0.5"/>
    <rect x="0.5" y="0.5" width="899" height="307" rx="16" stroke="#ffffff" stroke-opacity="0.12" fill="none"/>
  </g>
</svg>