<svg width="150" height="180" viewBox="0 0 25 30" xmlns="http://www.w3.org/2000/svg" shape-rendering="crispEdges">
  <g fill="#6b4a2b">
    <rect x="11" y="14" width="3" height="14"/>
    <rect x="9" y="27" width="7" height="1" opacity="0.5"/>
  </g>
  <g>
    <animateTransform attributeName="transform" type="rotate" values="-1.6 12.5 14; 1.6 12.5 14; -1.6 12.5 14" dur="5s" repeatCount="indefinite" calcMode="spline" keySplines="0.45 0 0.55 1; 0.45 0 0.55 1"/>
    <g fill="#3f6212">
      <rect x="5" y="6" width="15" height="4"/>
      <rect x="7" y="2" width="11" height="4"/>
      <rect x="3" y="10" width="19" height="4"/>
      <rect x="9" y="0" width="7" height="2"/>
    </g>
    <g fill="#65a30d">
      <rect x="7" y="3" width="3" height="2"/><rect x="14" y="1" width="3" height="2"/>
      <rect x="4" y="11" width="3" height="2"/><rect x="17" y="7" width="3" height="2"/>
      <rect x="10" y="8" width="4" height="2"/><rect x="19" y="12" width="2" height="1"/>
    </g>
    <g fill="#a3e635">
      <rect x="12" y="4" width="2" height="1"/><rect x="6" y="8" width="2" height="1"/><rect x="16" y="11" width="2" height="1"/>
    </g>
  </g>
  <rect width="1.4" height="1.4" fill="#65a30d">
    <animate attributeName="x" values="18;16;17.5;15.5" dur="4.5s" repeatCount="indefinite"/>
    <animate attributeName="y" values="12;18;24;28" dur="4.5s" repeatCount="indefinite"/>
    <animate attributeName="opacity" values="0;1;1;0" keyTimes="0;0.1;0.8;1" dur="4.5s" repeatCount="indefinite"/>
  </rect>
</svg>
